PathFileType  4	(X/Y/Z) C:\Users\antoi\Documents\MyRepositories\mobilecap\ResultsAnalysis
DataRate	CameraRate	NumFrames	NumMarkers	Units	OrigDataRate	OrigDataStartFrame	OrigNumFrames
100.0	100.0	7	51	mm	100.0	37	146
Frame#	Time	r_knee			r_shank_antsup			r_ankle			r_calc			r_5meta			r_toe			L_knee			L_shank_antsup			L_ankle			L_calc			L_5meta			L_toe			r_sh2			r_sh3			r_sh4			L_sh2			L_sh3			r_thigh1			r_thigh2			r_thigh3			r_thigh4			r_thigh5			L_thigh1			L_thigh2			L_thigh3			L_thigh4			r.ASIS			r.PSIS			L.ASIS			L.PSIS			C7			R_Shoulder			L_Shoulder			R_Sternum			L_Sternum			R_humerus			R_elbow_med			R_elbow_lat			R_forearm			R_wrist_radius			R_wrist_ulna			L_humerus			L_elbow_med			L_elbow_lat			L_forearm			L_wrist_radius			L_wrist_ulna			R_HJC			L_HJC			R_HJC_reg			L_HJC_reg			
		X1	Y1	Z1	X2	Y2	Z2	X3	Y3	Z3	X4	Y4	Z4	X5	Y5	Z5	X6	Y6	Z6	X7	Y7	Z7	X8	Y8	Z8	X9	Y9	Z9	X10	Y10	Z10	X11	Y11	Z11	X12	Y12	Z12	X13	Y13	Z13	X14	Y14	Z14	X15	Y15	Z15	X16	Y16	Z16	X17	Y17	Z17	X18	Y18	Z18	X19	Y19	Z19	X20	Y20	Z20	X21	Y21	Z21	X22	Y22	Z22	X23	Y23	Z23	X24	Y24	Z24	X25	Y25	Z25	X26	Y26	Z26	X27	Y27	Z27	X28	Y28	Z28	X29	Y29	Z29	X30	Y30	Z30	X31	Y31	Z31	X32	Y32	Z32	X33	Y33	Z33	X34	Y34	Z34	X35	Y35	Z35	X36	Y36	Z36	X37	Y37	Z37	X38	Y38	Z38	X39	Y39	Z39	X40	Y40	Z40	X41	Y41	Z41	X42	Y42	Z42	X43	Y43	Z43	X44	Y44	Z44	X45	Y45	Z45	X46	Y46	Z46	X47	Y47	Z47	X48	Y48	Z48	X49	Y49	Z49	X50	Y50	Z50	X51	Y51	Z51	

37	0.36000000	209.55835	536.31566	-10.93716	225.85518	452.43833	-3.16964	133.67812	97.87797	-48.64206	73.57319	57.04407	-96.84072	280.22495	34.83181	-23.68754	313.03196	64.24092	-82.65946	408.88611	570.06906	-306.40384	394.42853	451.90874	-310.49741	206.32551	188.26889	-244.50564	133.08067	164.62615	-191.47803	322.92942	73.96098	-297.55145	360.76819	97.24534	-239.31247	210.51970	339.71716	-3.51298	151.20514	461.76526	14.26172	124.67605	350.74872	6.64330	317.05846	498.36991	-316.46392	263.88148	391.96660	-298.97180	298.11148	852.48981	35.90599	307.10251	743.36922	18.57838	248.37909	712.97272	40.05157	184.43580	840.48942	38.38175	195.14324	726.00589	27.64272	347.35033	891.00684	-320.27541	417.98036	771.56039	-325.72086	247.77030	830.80393	-319.42987	323.50597	714.59098	-329.65363	324.65785	1049.66140	-9.05317	129.76750	1101.38838	-84.64239	314.11680	1040.44239	-268.45688	123.57517	1093.41243	-188.83807	169.85005	1605.65766	-173.62967	218.92757	1582.07019	-0.45092	225.74072	1572.50642	-320.08540	320.89611	1532.15824	-130.16182	324.19816	1526.68233	-185.91616	166.27953	1324.92073	108.28841	140.75229	1228.28685	36.24345	136.21622	1241.15524	118.12650	195.50557	1098.94173	167.31657	239.84074	992.11945	182.25078	193.87212	991.75188	182.97614	188.08145	1318.07742	-409.25112	138.51773	1226.91430	-346.71176	160.15569	1231.40825	-414.75731	244.98103	1076.24424	-426.06762	298.10485	992.97089	-412.99423	261.90452	977.29523	-424.05097	233.04815	977.49448	-11.23346	227.66865	967.70659	-241.33104	244.03265	984.33030	-36.16555	233.89098	971.26706	-206.82086	
38	0.37000000	214.87804	535.69197	-10.82742	230.48636	451.68661	-3.27801	134.34432	98.27677	-49.19864	73.79237	57.23216	-97.08650	280.37684	34.79782	-23.55341	313.09625	63.45072	-83.01533	422.93784	570.34256	-305.13813	413.73929	451.20755	-310.52404	240.61941	177.10130	-246.72972	168.15160	149.37103	-193.75461	362.43414	70.05518	-300.50101	399.04408	94.81480	-242.04996	214.01290	338.99871	-3.76762	155.87666	461.61551	14.36815	128.21390	350.89881	6.66700	334.09534	493.90670	-315.53016	286.68753	384.69319	-298.96477	307.08585	851.00937	36.49384	315.10762	741.78161	18.67946	256.00318	711.93082	40.22564	193.02617	840.17058	39.15101	202.69705	725.59577	28.11428	358.80641	891.06571	-319.13662	430.03476	772.08922	-324.42227	259.38111	830.27874	-318.55065	336.11143	714.44366	-328.59410	335.20638	1048.49251	-7.73802	140.49101	1100.69616	-83.70984	324.85046	1039.82543	-267.27238	134.28791	1092.80709	-187.88564	181.64229	1604.59868	-175.85864	230.39513	1582.62069	-2.42467	237.84792	1569.97626	-322.20412	332.26722	1531.18540	-131.51146	335.85272	1525.32746	-187.29502	177.30709	1326.50274	108.37467	151.64255	1229.27698	37.14059	147.15243	1242.73790	118.89433	206.81396	1101.10862	169.25718	251.47993	994.57813	185.10934	205.44738	994.11537	185.81892	195.50660	1315.23643	-408.74381	145.85463	1225.57895	-344.51687	166.06902	1229.11984	-412.91613	245.22177	1071.31016	-425.31628	295.33052	986.23156	-413.13716	258.21003	971.60129	-423.25546	243.43332	976.49241	-10.28556	238.34893	967.10829	-240.40718	254.51421	983.52554	-34.92477	244.34823	970.59633	-205.65778	
39	0.38000000	220.22399	535.01080	-10.77389	235.16734	450.89002	-3.45912	135.06136	98.68265	-49.82089	74.03379	57.38753	-97.35144	280.52196	34.77901	-23.45837	313.15261	62.71678	-83.32867	436.50060	570.23839	-303.77870	432.72458	450.42871	-310.59374	275.52850	166.38979	-249.23392	204.04583	134.75934	-196.24392	402.00035	66.64271	-303.75094	437.40627	92.77088	-245.11581	217.54294	338.25336	-4.12123	160.59990	461.40990	14.43942	131.84488	350.97774	6.63135	350.95469	489.18741	-314.42031	309.58002	377.41834	-298.94748	316.15418	849.40602	37.03395	323.06794	740.12993	18.73381	263.71686	710.77016	40.34127	201.66555	839.77811	39.92603	210.29263	725.11676	28.56579	370.20144	890.78474	-317.93306	441.76677	772.20707	-323.06594	270.74195	829.50407	-317.69631	348.34356	713.98286	-327.48974	345.92596	1047.19517	-6.45722	151.29282	1099.84620	-82.72363	335.63087	1039.02465	-266.13832	145.04291	1092.03265	-186.86769	193.52324	1603.34053	-178.26083	241.98819	1583.04441	-4.57809	250.05517	1567.22441	-324.47073	343.75796	1530.03454	-133.00717	347.54880	1523.78599	-188.82486	188.31335	1328.03660	108.34534	162.47541	1230.24333	37.94185	158.01360	1244.30008	119.57357	218.01443	1103.25389	171.12317	262.96544	997.00279	187.89252	216.89868	996.46210	188.62223	203.13975	1312.28588	-408.37729	153.36969	1224.14097	-342.57659	172.15079	1226.80895	-411.32225	245.57936	1066.53594	-424.60477	292.59835	979.76251	-413.32133	254.61636	966.28475	-422.39217	253.97833	975.35486	-9.31822	249.07190	966.33247	-239.45824	265.14280	982.55698	-33.68302	254.89142	969.74104	-204.50464	
40	0.39000000	225.58288	534.27549	-10.75708	239.87997	450.04793	-3.68185	135.78714	99.08899	-50.48024	74.28806	57.51460	-97.61932	280.65649	34.76584	-23.41137	313.20005	62.04261	-83.60709	449.58934	569.76405	-302.34597	451.37971	449.63587	-310.63597	310.88198	156.33745	-251.92776	240.65249	121.03974	-198.89530	441.50731	63.69594	-307.23894	475.80486	91.11977	-248.47808	221.08131	337.48696	-4.54906	165.35266	461.15944	14.48300	135.51157	351.01174	6.55416	367.63062	484.20315	-313.21295	332.53020	370.19348	-298.96950	325.29535	847.68261	37.52118	331.00944	738.40891	18.76482	271.49117	709.50460	40.39767	210.38772	839.30537	40.70627	217.96126	724.55689	28.97382	381.53722	890.19132	-316.67332	453.20970	771.91387	-321.65746	281.91553	828.50715	-316.88184	360.20671	713.24202	-326.30660	356.81932	1045.76713	-5.22969	162.18652	1098.84700	-81.68989	346.46920	1038.04642	-265.07496	155.84959	1091.09660	-185.79616	205.49883	1601.88663	-180.82953	253.70654	1583.32523	-6.91084	262.36948	1564.24159	-326.87943	355.44437	1528.72399	-134.64643	359.27557	1522.05362	-190.50126	199.30458	1329.50720	108.19343	173.25560	1231.16520	38.64828	168.79265	1245.83860	120.16842	229.10985	1105.37581	172.91514	274.29885	999.39032	190.60212	228.24066	998.79179	191.38200	211.01367	1309.21233	-408.15263	160.99847	1222.62941	-340.90386	178.39601	1224.47659	-409.98947	246.08690	1061.90658	-423.92779	289.90711	973.56528	-413.52317	251.17991	961.33097	-421.45248	264.69034	974.08187	-8.34866	259.84209	965.38759	-238.50223	275.92512	981.43236	-32.45684	265.52093	968.70806	-203.37751	
41	0.40000000	230.95371	533.49274	-10.75077	244.60755	449.16215	-3.91063	136.47878	99.49804	-51.13660	74.54269	57.62614	-97.87501	280.77462	34.74998	-23.41309	313.23964	61.43258	-83.85625	462.22416	568.92940	-300.87298	469.69829	448.85956	-310.62193	346.53611	147.10743	-254.73343	277.84060	108.44392	-201.66437	480.86309	61.17671	-310.88256	514.20289	89.86365	-252.08623	224.60561	336.70684	-5.01102	170.12253	460.87833	14.51231	139.17010	351.02998	6.45884	384.12279	478.94698	-312.02821	355.52454	363.05579	-299.08731	334.47882	845.84761	37.95560	338.97393	736.61216	18.77701	279.31676	708.14958	40.40577	219.23389	838.74448	41.49573	225.74750	723.89902	29.31215	392.80872	889.31625	-315.36041	464.39520	771.21280	-320.20542	292.96470	827.33525	-316.09600	371.70281	712.24631	-325.01768	367.88647	1044.21401	-4.07533	173.18270	1097.71199	-80.62209	357.37413	1036.89945	-264.09727	166.72012	1090.01220	-184.69106	217.56985	1600.24454	-183.55364	265.55316	1583.44951	-9.42045	274.79677	1561.02003	-329.41851	367.36379	1527.26762	-136.42652	371.02703	1520.12574	-192.31880	210.28102	1330.90587	107.91571	183.98043	1232.01924	39.26420	179.48792	1247.35148	120.68172	240.10726	1107.47166	174.62945	285.49270	1001.74095	193.23351	239.49168	1001.10736	194.09117	219.14632	1306.01003	-408.07294	168.68771	1221.07460	-339.49908	184.81531	1222.12075	-408.90326	246.77507	1057.40973	-423.28573	287.25183	967.64076	-413.70214	247.96312	956.70387	-420.44180	275.57137	972.68163	-7.39454	270.66482	964.28494	-237.55738	286.86224	980.16324	-31.26741	276.24118	967.50968	-202.29387	
42	0.41000000	236.35218	532.67127	-10.72671	249.33954	448.23427	-4.11895	137.10844	99.91766	-51.74817	74.78497	57.73781	-98.10715	280.86953	34.72888	-23.45455	313.27360	60.89512	-84.07589	474.42243	567.74163	-299.39865	487.66925	448.09742	-310.56804	382.39112	138.81865	-257.61317	315.46094	97.17117	-204.51774	520.01536	59.04853	-314.58349	552.56681	88.99798	-255.86482	228.10836	335.91808	-5.46037	174.91327	460.57876	14.54759	142.80634	351.05707	6.37306	400.44373	473.42849	-310.98949	378.56185	356.03809	-299.35286	343.66989	843.91437	38.34554	347.00793	734.73651	18.77191	287.20445	706.72112	40.38670	228.23587	838.09184	42.30582	233.69121	723.12843	29.57089	404.00748	888.18989	-313.98923	475.34848	770.10345	-318.71284	303.93091	826.03462	-315.30745	382.83396	711.00239	-323.61608	379.12217	1042.54693	-3.01005	184.29206	1096.45785	-79.54051	368.35506	1035.58998	-263.21261	177.67115	1088.79257	-183.57791	229.73028	1598.42119	-186.41814	277.54501	1583.40968	-12.10320	287.34032	1557.55379	-332.07268	379.48889	1525.66772	-138.34528	382.80937	1517.99834	-194.27235	221.23695	1332.23218	107.51386	194.63908	1232.78764	39.79481	190.10120	1248.83737	121.11491	251.01605	1109.53933	176.25772	296.56838	1004.05906	195.77501	250.67110	1003.41245	196.73939	227.53650	1302.67838	-408.14341	176.41639	1219.49111	-338.35424	191.43534	1219.73032	-408.02791	247.67073	1053.03784	-422.68699	284.65282	961.99114	-413.80698	245.03330	952.35845	-419.37539	286.61812	971.16824	-6.47013	281.54879	963.03365	-236.63829	297.94960	978.76734	-30.13249	287.05821	966.15881	-201.26551	
43	0.42000000	241.81074	531.81795	-10.66045	254.07437	447.25984	-4.30068	137.67215	100.35587	-52.28243	75.00548	57.86210	-98.31007	280.93617	34.70885	-23.51883	313.30273	60.43919	-84.26177	486.19279	566.20453	-297.96181	505.27675	447.33721	-310.51277	418.38321	131.56125	-260.57718	353.34809	87.38091	-207.44083	558.94684	57.28947	-318.23688	590.85387	88.51172	-259.70989	231.60275	335.11901	-5.85582	179.74825	460.26510	14.61381	146.44020	351.10617	6.32606	416.61912	467.68653	-310.17912	401.64081	349.18528	-299.80444	352.84183	841.89769	38.70865	355.15136	732.78195	18.75874	295.17847	705.23209	40.36789	237.40420	837.34916	43.15312	241.81118	722.23992	29.77067	415.12138	886.83311	-312.55298	486.08377	768.57374	-317.17883	314.81722	824.63134	-314.47854	393.60334	709.49734	-322.11886	390.51139	1040.77703	-2.04110	195.52732	1095.10103	-78.47121	379.42231	1034.11765	-262.41907	188.72425	1087.44600	-182.48488	241.96896	1596.41968	-189.40582	289.71510	1583.20507	-14.95539	299.99965	1553.83942	-334.82756	391.73188	1523.91335	-140.40123	394.64459	1515.66997	-196.35720	232.16315	1333.49267	106.99366	205.21220	1233.46611	40.24517	200.63456	1250.29506	121.46911	261.84608	1111.57950	177.78869	307.55229	1006.35240	198.20958	261.79446	1005.71049	199.31242	236.16616	1299.21875	-408.36862	184.20064	1217.86904	-337.46162	198.28793	1217.28196	-407.32687	248.79791	1048.78756	-422.14633	282.17147	956.61618	-413.78666	242.45776	948.25494	-418.27504	297.81924	969.55681	-5.58398	292.50586	961.63672	-235.75375	309.17501	977.26653	-29.06054	297.97487	964.66455	-200.29407	
